<svg width="40" height="40" viewBox="0 0 40 40" fill="none" xmlns="http://www.w3.org/2000/svg">
<g clip-path="url(#clip0_2_46)">
<path d="M32.6769 28.6154H14.5846C14.4615 28.6154 14.4 28.6769 14.3384 28.6769L9.7846 31.6308L14.3384 34.5846C14.4 34.6462 14.5231 34.6462 14.5846 34.6462H32.6769C34.3384 34.6462 35.7538 33.2923 35.7538 31.5692C35.7538 29.8462 34.4 28.6154 32.6769 28.6154ZM29.9692 29.5385V31.2H15.0154V29.5385H29.9692ZM14.0923 29.9077V33.4154L11.4461 31.6923L14.0923 29.9077ZM15.0154 32.1231H29.9077V33.7846H15.0154V32.1231ZM32.6769 33.7846H30.8308V29.5385H32.6769C33.8461 29.5385 34.8308 30.5231 34.8308 31.6923C34.8308 32.8615 33.9077 33.7846 32.6769 33.7846ZM11.0769 15.6308C12 15.6308 12.7385 15.0154 12.9846 14.1538H20.7385L22.9538 16.3692L25.1692 14.1538H32.9846C33.1692 15.0154 33.9692 15.6308 34.8923 15.6308C35.9385 15.6308 36.8615 14.7692 36.8615 13.6615C36.8615 12.6154 36 11.6923 34.8923 11.6923C33.9692 11.6923 33.2308 12.3077 32.9846 13.1692H25.1692L22.9538 10.9538L20.7385 13.1692H12.9231C12.7385 12.3077 11.9385 11.6923 11.0154 11.6923C9.96922 11.6923 9.04614 12.5538 9.04614 13.6615C9.10768 14.7692 9.96922 15.6308 11.0769 15.6308ZM34.8308 12.6769C35.3846 12.6769 35.8769 13.1692 35.8769 13.7231C35.8769 14.2769 35.4461 14.7692 34.8308 14.7692C34.2154 14.7692 33.8461 14.2769 33.8461 13.7231C33.8461 13.1692 34.2769 12.6769 34.8308 12.6769ZM22.8923 12.3077L24.3077 13.7231L22.8923 15.1385L21.5385 13.7231L22.8923 12.3077ZM11.0769 12.6769C11.6308 12.6769 12.1231 13.1077 12.1231 13.7231C12.1231 14.2769 11.6923 14.7692 11.0769 14.7692C10.5231 14.7692 10.0308 14.2769 10.0308 13.7231C10.0308 13.1692 10.5231 12.6769 11.0769 12.6769Z" fill="white"/>
<path d="M5.90769 6.95385V1.78462H5.47692C5.47692 1.78462 4.43077 1.72308 4.06154 1.72308C1.66154 1.72308 -0.123077 3.38462 -0.123077 5.66155V33.8462C-0.123077 36.3692 1.90769 38.4 4.43077 38.4H40.1846V7.07693H5.90769V6.95385ZM0.8 5.66155C0.8 3.93847 2.15385 2.64616 4.06154 2.64616H5.04615V29.2923C4.86154 29.2923 4.61538 29.2308 4.43077 29.2308C2.95385 29.2308 1.66154 29.9692 0.8 31.0154V5.66155ZM39.2 37.3539H4.36923C2.4 37.3539 0.738461 35.7539 0.738461 33.7231C0.738461 31.7539 2.33846 30.0923 4.36923 30.0923C4.61538 30.0923 5.04615 30.1539 5.29231 30.2154L5.78462 30.3385L5.90769 29.7231V7.81539H39.2615L39.2 37.3539Z" fill="white"/>
<path d="M35.0769 19.2615H10.8308V25.4154H35.0769V19.2615ZM34.1539 24.5538H32.5539V22.0923H31.6308V24.5538H29.5385V22.9538H28.6154V24.5538H26.4615V22.0923H25.5385V24.5538H23.4462V22.9538H22.5231V24.5538H20.4308V22.0923H19.5077V24.5538H17.4154V22.9538H16.4923V24.5538H14.4V22.0923H13.4769V24.5538H11.8769V20.2462H34.2154V24.5538H34.1539Z" fill="white"/>
</g>
<defs>
<clipPath id="clip0_2_46">
<rect width="40" height="40" fill="white"/>
</clipPath>
</defs>
</svg>
