<svg width="40" height="40" viewBox="0 0 40 40" fill="none" xmlns="http://www.w3.org/2000/svg">
<path d="M32.5 16L24 7.49999M5.83333 25.8333L28.1667 3.16666C29.1667 2.16666 30.6667 2.16666 31.6667 3.16666L36.6667 8.16666C37.6667 9.16666 37.6667 10.6667 36.6667 11.6667L14.1667 34.1667L2.5 37.5L5.83333 25.8333Z" stroke="white" stroke-linecap="round" stroke-linejoin="round"/>
<path d="M14.1667 34.1667V30.8333L10.8333 29.1667M10.8333 29.1667L9.16668 25.8333H5.83334M10.8333 29.1667L28.3333 11.6667M9.16668 35.6667L4.33334 30.8333" stroke="white" stroke-linecap="round" stroke-linejoin="round"/>
<path d="M11.6667 20L2.5 10.8333L10.8333 2.5L20 11.6667M28.3333 20L37.5 29.1667L29.1667 37.5L20 28.3333" stroke="white" stroke-linecap="round" stroke-linejoin="round"/>
<path d="M25.8333 34.1666L29.1667 30.8333M22.5 30.8333L25.8333 27.5M9.16668 17.5L12.5 14.1666M5.83334 14.1666L9.16668 10.8333" stroke="white" stroke-linecap="round" stroke-linejoin="round"/>
</svg>
